<?xml version="1.0" standalone="no"?>
<!DOCTYPE svg PUBLIC "-//W3C//DTD SVG 20010904//EN"
 "http://www.w3.org/TR/2001/REC-SVG-20010904/DTD/svg10.dtd">
<svg version="1.0" xmlns="http://www.w3.org/2000/svg"
 width="16.000000pt" height="16.000000pt" viewBox="0 0 16.000000 16.000000"
 preserveAspectRatio="xMidYMid meet">
<metadata>
Created by potrace 1.11, written by Peter Selinger 2001-2013
</metadata>
<g transform="translate(0.000000,16.000000) scale(0.006154,-0.006154)"
fill="#000000" stroke="none">
<path d="M0 1300 l0 -1300 1300 0 1300 0 0 1300 0 1300 -1300 0 -1300 0 0
-1300z m2300 0 l0 -1000 -1000 0 -1000 0 0 1000 0 1000 1000 0 1000 0 0 -1000z"/>
<path d="M1129 2185 c-40 -22 -104 -151 -137 -276 -9 -35 -8 -36 22 -47 53
-19 74 -15 92 19 8 17 17 49 19 70 3 32 0 39 -14 39 -23 0 -58 26 -48 36 4 4
24 2 43 -5 43 -16 49 -11 84 67 38 84 7 135 -61 97z"/>
<path d="M1578 2173 c-34 -9 -35 -75 -3 -223 29 -136 34 -165 34 -205 0 -36
-1 -38 -10 -15 -6 13 -15 28 -21 31 -9 6 -8 11 1 22 6 8 9 27 6 41 -3 14 -7
36 -10 49 -4 19 -11 22 -45 22 l-40 0 0 -41 c0 -43 22 -74 53 -74 9 0 17 -7
17 -15 0 -10 -10 -15 -30 -15 -30 0 -30 -1 -30 -55 l0 -55 34 0 c19 0 42 -3
51 -6 11 -5 18 0 22 16 4 15 8 18 14 9 11 -19 -30 -45 -83 -52 -35 -5 -48 -3
-48 6 -2 61 -12 241 -16 273 -5 42 -27 60 -59 48 -20 -8 -47 -67 -44 -94 4
-23 8 -25 44 -22 35 4 38 2 26 -12 -7 -9 -26 -16 -41 -16 -24 0 -28 -5 -36
-42 l-8 -43 -4 43 c-3 39 -5 42 -31 42 -34 0 -62 26 -39 35 8 3 27 1 42 -4 30
-12 31 -11 41 60 4 36 2 51 -10 63 -19 19 -29 20 -57 5 -19 -10 -20 -9 -13 7
43 102 20 177 -49 160 -40 -10 -106 -188 -146 -391 -18 -95 -16 -92 -65 -93
-53 -2 -60 13 -12 22 40 8 56 36 63 112 l5 51 -40 7 c-21 3 -46 9 -55 12 -23
9 -36 -33 -44 -140 -7 -85 -8 -90 -32 -96 -14 -3 -30 -16 -36 -29 -11 -21 -12
-19 -23 27 -15 60 -42 105 -76 128 -23 15 -28 15 -36 3 -5 -8 -9 -25 -9 -40 0
-32 -41 -184 -74 -274 -41 -111 -37 -140 43 -312 112 -243 128 -268 181 -286
76 -26 145 -37 201 -30 60 6 60 -11 1 -20 -19 -3 -37 -8 -40 -12 -12 -12 -4
-92 19 -186 17 -71 19 -96 11 -110 -16 -24 6 -39 23 -15 12 16 45 13 45 -4 0
-5 15 6 34 23 33 32 33 33 45 167 6 74 14 150 17 167 4 28 2 32 -12 26 -13 -5
-10 7 15 50 31 54 32 60 25 129 -6 63 -12 81 -47 131 -23 31 -43 57 -46 57 -7
0 -66 -124 -76 -157 -3 -13 -13 -23 -21 -23 -23 0 -9 50 38 142 l39 77 -27 40
c-21 33 -91 85 -146 109 -16 7 -7 -22 16 -52 37 -49 53 -87 60 -141 7 -51 -6
-137 -25 -158 -5 -7 -17 -21 -25 -32 -15 -19 -15 -19 -10 5 4 14 11 62 17 107
12 86 7 144 -15 165 -7 7 -14 18 -15 23 -7 22 -61 91 -85 109 -29 21 -35 46
-11 46 8 0 39 -13 68 -30 28 -16 68 -36 88 -44 l36 -15 -15 42 c-14 39 -21 45
-84 71 -37 15 -68 34 -68 41 0 10 14 8 55 -11 68 -30 77 -30 74 -1 -4 33 28
86 56 93 38 10 78 -12 144 -79 34 -33 61 -55 61 -49 0 7 -4 12 -8 12 -5 0 -16
18 -26 40 -19 44 -87 105 -129 115 -15 4 -27 13 -27 21 0 17 33 18 62 3 24
-13 24 -13 31 37 7 40 6 41 -31 50 -23 6 -38 16 -40 27 -3 16 -1 17 16 8 12
-6 32 -11 45 -11 21 0 26 7 36 44 6 24 13 51 17 60 4 12 0 16 -16 16 -11 0
-19 4 -16 9 4 5 -2 8 -11 6 -19 -3 -43 12 -43 26 0 10 71 -1 88 -14 14 -11 11
-46 -13 -147 -8 -30 -16 -78 -20 -105 l-6 -50 56 -49 c31 -26 59 -45 62 -42 3
3 8 33 10 66 l4 60 -28 0 c-16 0 -38 7 -49 15 -21 16 -17 18 44 15 25 -1 42 3
42 10 0 8 6 8 21 -1 12 -6 35 -8 51 -5 21 4 28 2 26 -6 -3 -7 -23 -16 -46 -21
-38 -7 -42 -11 -42 -37 0 -36 16 -47 38 -27 21 19 72 33 72 19 0 -5 -13 -15
-29 -22 -37 -15 -95 -79 -110 -120 -10 -31 -10 -31 42 16 29 26 76 58 105 71
64 30 100 23 122 -25 11 -25 20 -31 35 -27 57 15 75 17 75 6 0 -11 -8 -15 -77
-41 -18 -7 -33 -17 -33 -23 0 -5 -16 -40 -35 -78 l-34 -68 57 26 c31 15 84 36
117 48 l60 21 -1 57 c-1 31 -6 63 -12 70 -6 7 -14 32 -18 54 -6 41 -8 42 -47
45 -50 4 -64 28 -15 28 55 0 59 8 47 80 -15 93 -13 90 -47 78 -16 -6 -38 -8
-48 -4 -16 6 -12 11 26 29 48 23 48 25 35 105 l-6 33 -26 -21 c-14 -11 -32
-20 -39 -20 -26 0 -14 28 20 48 31 19 33 23 35 78 2 93 -30 133 -91 117z m107
-462 c3 -5 1 -12 -5 -16 -5 -3 -10 1 -10 9 0 18 6 21 15 7z m-857 -176 c32 0
33 -2 28 -30 -3 -16 -9 -66 -12 -110 -4 -54 -14 -96 -30 -129 -13 -28 -24 -60
-24 -73 0 -13 -5 -23 -11 -23 -17 0 -3 99 17 121 9 10 21 16 25 13 5 -3 4 6
-2 20 -8 16 -9 46 -3 93 4 37 8 72 9 78 0 5 -14 12 -31 15 -17 4 -36 10 -43
14 -19 12 -1 27 22 19 12 -4 37 -8 55 -8z m-124 -364 c17 -19 20 -31 8 -31
-10 0 -42 55 -48 83 -15 75 -12 95 5 34 11 -38 26 -76 35 -86z m75 -140 c16
-28 7 -27 -12 3 -9 12 -18 41 -21 62 l-6 39 14 -41 c8 -23 19 -51 25 -63z m99
-86 c-3 -3 -9 2 -12 12 -6 14 -5 15 5 6 7 -7 10 -15 7 -18z m298 -62 c-32 -34
-33 -26 -3 29 19 36 22 40 25 21 2 -14 -7 -34 -22 -50z m-156 7 c0 -5 -4 -10
-9 -10 -6 0 -13 5 -16 10 -3 6 1 10 9 10 9 0 16 -4 16 -10z"/>
<path d="M973 2125 c-12 -9 -32 -29 -44 -46 l-22 -31 33 -31 c28 -26 30 -31
16 -39 -11 -6 -23 -4 -38 6 -12 9 -26 16 -31 16 -12 0 -54 -97 -72 -167 l-16
-62 40 -51 c22 -27 43 -59 46 -70 11 -36 35 -23 37 20 4 96 5 94 -24 97 -15 1
-36 7 -47 13 -26 13 -28 35 -3 25 9 -4 31 -11 48 -15 30 -7 31 -6 43 39 7 25
34 96 62 157 27 62 49 117 49 123 0 10 -31 31 -47 31 -5 0 -18 -7 -30 -15z"/>
<path d="M1698 2065 c-8 -18 -8 -35 1 -67 6 -24 13 -56 16 -73 3 -16 8 -41 11
-55 4 -14 9 -61 11 -105 3 -44 9 -84 14 -89 6 -6 9 -5 9 2 0 7 12 17 27 23 22
8 32 6 55 -11 l29 -21 -7 38 c-8 48 -7 46 -37 32 -30 -13 -80 -4 -74 14 2 7
12 13 23 15 69 10 67 7 60 80 -3 37 -6 73 -6 80 0 8 -8 6 -22 -8 -12 -11 -27
-20 -34 -20 -24 0 -24 19 0 35 30 20 37 45 25 89 -9 34 -45 66 -74 66 -8 0
-20 -11 -27 -25z"/>
<path d="M1361 2030 c0 -33 1 -34 11 -12 8 17 8 26 0 34 -9 9 -12 4 -11 -22z"/>
<path d="M1476 2028 c-9 -12 -16 -31 -16 -41 0 -26 45 -67 75 -67 23 0 25 4
25 43 0 75 -50 114 -84 65z"/>
<path d="M1860 2024 c0 -7 7 -27 15 -45 10 -24 14 -28 14 -14 0 21 -28 78 -29
59z"/>
<path d="M748 1967 c-23 -53 -22 -57 2 -57 17 0 20 7 20 50 0 28 -1 50 -2 50
-2 0 -11 -19 -20 -43z"/>
<path d="M625 1717 c-8 -31 2 -97 14 -97 4 0 8 6 9 13 1 6 3 23 5 37 2 14 -2
36 -9 49 l-13 25 -6 -27z"/>
<path d="M380 1700 c0 -5 5 -10 11 -10 5 0 7 5 4 10 -3 6 -8 10 -11 10 -2 0
-4 -4 -4 -10z"/>
<path d="M1776 1646 c-9 -19 -16 -40 -16 -48 0 -24 60 -88 83 -88 l21 0 -22
-16 c-12 -8 -27 -12 -32 -9 -6 4 -10 -10 -10 -34 0 -21 -3 -46 -6 -54 -3 -10
7 -19 33 -30 l38 -16 -32 -12 c-23 -10 -32 -20 -36 -43 -14 -91 -32 -156 -41
-153 -18 6 -18 95 -2 145 18 52 15 60 -17 45 -12 -6 -38 -17 -57 -24 -42 -16
-106 -72 -126 -110 -32 -62 -9 -173 49 -236 18 -21 19 -23 3 -23 -11 0 -14 4
-10 12 5 8 2 9 -10 5 -10 -4 -15 -3 -11 3 3 6 0 10 -8 10 -15 0 -23 17 -51
104 -21 64 -20 79 4 125 24 48 63 81 137 117 32 16 64 34 71 41 26 25 -12 14
-99 -29 -46 -23 -89 -42 -95 -42 -7 -1 -28 -25 -48 -55 l-37 -54 33 -94 c28
-81 31 -95 18 -103 -8 -5 -18 -10 -21 -10 -3 0 -14 38 -24 85 -10 47 -21 85
-25 85 -5 0 -30 -29 -56 -65 -26 -36 -50 -65 -53 -65 -2 0 -14 9 -26 20 l-21
20 7 -53 c11 -75 24 -129 37 -154 11 -19 10 -22 -3 -17 -8 4 -15 10 -15 15 0
5 -5 9 -11 9 -35 0 38 -233 105 -338 24 -38 31 -43 53 -37 14 3 31 1 39 -6 8
-7 14 -7 14 -1 0 5 10 10 23 10 46 0 147 15 147 21 0 4 8 7 18 8 27 1 85 11
110 18 27 9 25 18 -23 122 -30 65 -66 177 -68 211 0 7 -11 2 -27 -13 -17 -16
-52 -31 -99 -43 -69 -16 -71 -18 -65 -42 3 -14 9 -47 14 -75 4 -27 17 -74 28
-103 11 -28 16 -54 12 -57 -5 -3 -12 4 -15 16 -6 17 -9 19 -17 8 -7 -11 -8 -9
-4 5 4 10 -5 42 -20 74 -27 57 -46 181 -28 183 65 6 171 37 181 52 5 7 20 18
34 25 42 22 194 174 212 214 21 44 21 102 2 284 -12 114 -21 155 -44 207 -25
55 -52 87 -74 87 -3 0 -12 -15 -21 -34z m113 -303 c0 -25 -1 -26 -9 -8 -12 27
-12 35 0 35 6 0 10 -12 9 -27z m-209 -98 c-7 -9 -15 -13 -17 -11 -7 7 7 26 19
26 6 0 6 -6 -2 -15z m217 -37 c-3 -7 -5 -2 -5 12 0 14 2 19 5 13 2 -7 2 -19 0
-25z m-475 -220 c-9 -9 -12 -7 -12 12 0 19 3 21 12 12 9 -9 9 -15 0 -24z m28
-118 c0 -5 -5 -10 -11 -10 -5 0 -7 5 -4 10 3 6 8 10 11 10 2 0 4 -4 4 -10z
m-95 -140 c3 -5 1 -10 -4 -10 -6 0 -11 5 -11 10 0 6 2 10 4 10 3 0 8 -4 11
-10z m373 -102 c16 -19 22 -66 13 -91 -8 -21 -8 -21 -21 3 -7 13 -19 46 -25
72 -12 44 -12 47 4 38 10 -5 23 -15 29 -22z m-289 -62 c22 -35 28 -61 11 -51
-15 10 -52 85 -41 85 5 0 19 -15 30 -34z"/>
<path d="M1096 1505 c-24 -37 -19 -84 18 -160 42 -88 152 -238 168 -229 6 4 8
3 4 -4 -3 -6 3 -17 15 -26 20 -14 24 -11 71 45 27 33 46 64 42 71 -4 7 -3 8 4
4 12 -7 101 117 126 179 19 45 21 96 4 113 -33 33 -125 0 -202 -74 l-29 -28
-36 41 c-79 89 -153 116 -185 68z m244 -285 c0 -5 -2 -10 -4 -10 -3 0 -8 5
-11 10 -3 6 -1 10 4 10 6 0 11 -4 11 -10z m-2 -56 c-3 -23 0 -30 9 -27 7 3 13
17 14 32 0 14 3 20 6 13 10 -26 -6 -58 -30 -60 -20 -1 -23 3 -25 37 -2 29 1
38 14 38 12 0 15 -8 12 -33z"/>
<path d="M781 794 c0 -11 3 -14 6 -6 3 7 2 16 -1 19 -3 4 -6 -2 -5 -13z"/>
<path d="M826 766 c-4 -17 -11 -76 -16 -131 -6 -55 -13 -120 -16 -145 l-6 -46
39 1 c21 0 49 -4 63 -9 14 -5 55 -9 93 -11 l67 -2 0 39 c0 22 -7 52 -15 68
-16 32 -22 58 -32 158 -5 59 -7 62 -32 62 -14 0 -51 11 -83 24 l-56 23 -6 -31z
m74 -119 c0 -29 -6 -70 -13 -92 l-12 -40 -5 85 c-5 82 2 116 21 104 5 -3 9
-29 9 -57z"/>
<path d="M1760 794 c0 -5 7 -18 15 -28 12 -16 15 -17 15 -4 0 8 -7 21 -15 28
-8 7 -15 9 -15 4z"/>
<path d="M745 600 c-3 -5 -1 -10 4 -10 6 0 11 5 11 10 0 6 -2 10 -4 10 -3 0
-8 -4 -11 -10z"/>
<path d="M1247 554 c-3 -19 -2 -45 3 -57 7 -17 9 -8 9 36 1 65 -4 73 -12 21z"/>
</g>
</svg>
